<svg width="41" height="12" viewBox="0 0 41 12" fill="none" xmlns="http://www.w3.org/2000/svg">
<path fill-rule="evenodd" clip-rule="evenodd" d="M3.74332 0.518513C4.10496 0.516318 5.17974 0.418114 5.635 1.97688C5.94167 3.02688 6.43017 4.74683 7.10051 7.13672H7.37351C8.09238 4.61713 8.58621 2.89718 8.855 1.97688C9.315 0.401877 10.465 0.518544 10.925 0.518544L14.474 0.518548V11.7185H10.8568V5.11819H10.6142L8.59776 11.7185H5.87625L3.85981 5.1133H3.61725V11.7185H0V0.518548L3.74332 0.518513ZM19.6683 0.518548V7.12379H19.9569L22.4097 1.69235C22.8858 0.611474 23.9006 0.518548 23.9006 0.518548H27.401V11.7185H23.7082V5.1133H23.4197L21.0149 10.5447C20.5388 11.6207 19.4759 11.7185 19.4759 11.7185H15.9755V0.518548H19.6683ZM40.165 5.84086C39.6499 7.3217 38.0322 8.38224 36.2413 8.38224H32.3687V11.7185H28.857V5.84086H40.165Z" fill="white"/>
<path fill-rule="evenodd" clip-rule="evenodd" d="M36.4106 0.518555H28.6729C28.857 3.01205 30.9737 5.14665 33.1648 5.14665H40.4089C40.827 3.07426 39.3879 0.518555 36.4106 0.518555Z" fill="white"/>
</svg>
