<svg width="40" height="14" viewBox="0 0 40 14" fill="none" xmlns="http://www.w3.org/2000/svg">
<path d="M29.075 1.36854C28.1441 1.03202 27.1611 0.86234 26.1712 0.867293C22.975 0.867293 20.7162 2.48229 20.7025 4.79354C20.6763 6.49229 22.3037 7.44979 23.5337 8.02229C24.7975 8.60854 25.22 8.97354 25.2137 9.49354C25.2075 10.2948 24.2038 10.6523 23.28 10.6523C21.9963 10.6523 21.3 10.4773 20.2262 10.0273L19.8275 9.83854L19.3725 12.5085C20.1537 12.8273 21.5538 13.1073 22.9988 13.1335C26.4037 13.1335 28.6238 11.5323 28.6488 9.06354C28.675 7.70979 27.8037 6.68229 25.9475 5.83479C24.8275 5.28854 24.1263 4.91604 24.1263 4.35604C24.1263 3.86104 24.725 3.34104 25.975 3.34104C26.8045 3.32026 27.6293 3.47311 28.3962 3.78979L28.7025 3.92604L29.1512 1.35479L29.075 1.36854ZM37.3838 1.08854H34.8838C34.1025 1.08854 33.5225 1.29729 33.1775 2.07229L28.3725 12.9635H31.7712L32.4562 11.1798L36.6025 11.186C36.7062 11.6023 36.9988 12.9623 36.9988 12.9623H40L37.3838 1.08854ZM16.1 0.991043H19.3363L17.3113 12.871H14.075L16.1 0.984793V0.991043ZM7.87125 7.53354L8.2025 9.18729L11.3725 1.08854H14.8038L9.69875 12.9435H6.2825L3.4825 2.90479C3.46105 2.8214 3.42283 2.74326 3.37018 2.67513C3.31752 2.60701 3.25154 2.55032 3.17625 2.50854C2.17048 1.98543 1.10354 1.58947 0 1.32979L0.03875 1.08104H5.26C5.96375 1.10729 6.53625 1.32979 6.73125 2.08479L7.87125 7.53979V7.53354ZM33.3787 8.75104L34.675 5.42479C34.655 5.45604 34.9412 4.74104 35.1038 4.29104L35.325 5.31229L36.075 8.74354H33.3787V8.75104Z" fill="white"/>
</svg>
